<svg width="29" height="28" viewBox="0 0 29 28" fill="none" xmlns="http://www.w3.org/2000/svg">
<path d="M11.3088 0.217181C7.55152 1.05487 4.47178 3.13677 2.35292 6.29043C-1.35509 11.8463 -0.615948 19.2993 4.11453 24.0544C5.53121 25.4834 7.68703 26.8631 9.31313 27.3928C9.91676 27.5899 9.99068 27.5899 10.2617 27.4051C10.5573 27.208 10.5697 27.1587 10.5697 25.7421V24.2884L9.4856 24.35C8.21675 24.4116 7.23123 24.1899 6.63992 23.6848C6.4305 23.5123 6.02397 22.921 5.74064 22.379C5.27251 21.4674 4.92758 21.0485 3.9667 20.1985C3.64641 19.9152 3.63409 19.9029 3.85583 19.7427C4.38555 19.3485 5.4573 19.7304 6.13484 20.5435C7.31746 21.9848 7.77326 22.3667 8.45081 22.5145C9.05444 22.6377 9.60879 22.5884 10.4465 22.342C10.5573 22.3051 10.7052 22.0464 10.7791 21.7507C10.853 21.4674 11.0501 21.0362 11.2103 20.8022L11.5059 20.371L10.5081 20.1739C8.41385 19.7427 7.12036 18.9913 6.27035 17.7101C5.48194 16.5275 5.22324 15.505 5.21092 13.5956C5.21092 11.797 5.40802 11.0579 6.18412 10.0477C6.52905 9.60423 6.56601 9.46872 6.46745 9.21002C6.28267 8.76654 6.33194 6.89406 6.52905 6.32739C6.68919 5.90854 6.77543 5.83463 7.10804 5.79767C7.66239 5.73608 8.69719 6.09333 9.7443 6.68464L10.6436 7.20203L11.432 7.01725C12.553 6.75855 15.9161 6.77087 16.9263 7.01725L17.69 7.21435L18.4045 6.78319C19.3531 6.21652 20.5603 5.77303 21.164 5.77303C21.6444 5.77303 21.6444 5.78535 21.8415 6.41362C22.0509 7.14044 22.0879 8.45857 21.9031 9.08683C21.8046 9.4564 21.8292 9.56727 22.1002 9.92452C23.443 11.6985 23.5908 14.6427 22.4575 17.0572C21.6937 18.6463 20.0799 19.7551 17.9118 20.1616L16.877 20.3587L17.2589 21.0362L17.6531 21.7261L17.69 24.4732L17.7393 27.2203L18.0473 27.4174C18.3306 27.6022 18.3922 27.6022 18.9835 27.3928C19.969 27.0602 21.6567 26.1486 22.5807 25.4464C28.0749 21.3319 29.8488 13.9528 26.8061 7.81798C25.0198 4.20852 21.6444 1.43676 17.7763 0.401965C16.0886 -0.0415171 12.9103 -0.140069 11.3088 0.217181Z" fill="#EFE9F3"/>
</svg>
